<svg xmlns="http://www.w3.org/2000/svg" xmlns:xlink="http://www.w3.org/1999/xlink" width="500" zoomAndPan="magnify" viewBox="0 0 375 374.999991" height="500" preserveAspectRatio="xMidYMid meet" version="1.0"><defs><g/><clipPath id="087823aaab"><path d="M 59 4.515625 L 321 4.515625 L 321 368 L 59 368 Z M 59 4.515625 " clip-rule="nonzero"/></clipPath></defs><g clip-path="url(#087823aaab)"><path fill="#ffffff" d="M 260.945312 239.695312 C 276.394531 245.78125 292.957031 261.210938 305.136719 282.429688 C 324.742188 316.703125 325.1875 353.351562 306.175781 364.183594 C 287.164062 375.015625 255.898438 355.949219 236.289062 321.601562 C 226.488281 304.460938 221.511719 286.730469 221.289062 271.894531 L 203.390625 239.695312 Z M 176.726562 239.695312 L 158.753906 271.894531 C 158.53125 286.730469 153.554688 304.460938 143.753906 321.601562 C 124.144531 355.875 92.878906 375.015625 73.867188 364.183594 C 54.855469 353.351562 55.375 316.703125 74.90625 282.429688 C 87.085938 261.210938 103.722656 245.78125 119.167969 239.695312 Z M 246.539062 249.710938 C 243.941406 250.007812 241.488281 250.75 239.261719 252.011719 C 224.777344 260.246094 224.480469 286.953125 238.59375 311.585938 C 252.628906 336.214844 275.800781 349.570312 290.28125 341.335938 C 304.691406 333.175781 305.0625 306.464844 290.953125 281.835938 C 282.410156 266.847656 270.527344 256.089844 259.238281 251.714844 Z M 133.503906 249.710938 C 136.101562 250.007812 138.554688 250.75 140.78125 252.011719 C 155.265625 260.246094 155.5625 286.953125 141.449219 311.585938 C 127.414062 336.214844 104.242188 349.570312 89.757812 341.335938 C 75.351562 333.175781 75.054688 306.464844 89.164062 281.835938 C 97.707031 266.847656 109.589844 256.089844 120.878906 251.714844 Z M 169.226562 132.046875 L 143.382812 132.046875 L 72.304688 4.515625 Z M 236.734375 132.046875 L 210.890625 132.046875 L 307.808594 4.515625 Z M 236.734375 132.046875 " fill-opacity="1" fill-rule="evenodd"/></g><g fill="#ffffff" fill-opacity="1"><g transform="translate(5.562107, 214.044566)"><g><path d="M 13.757812 -2.667969 L 9.898438 -22.578125 L 26.945312 -25.886719 L 25.300781 -34.347656 L 8.253906 -31.039062 L 6.613281 -39.503906 L 21.285156 -42.347656 L 19.632812 -50.875 L -4.476562 -46.195312 L 4.324219 -0.839844 Z M 13.757812 -2.667969 "/></g></g></g><g fill="#ffffff" fill-opacity="1"><g transform="translate(39.056923, 207.471373)"><g><path d="M 17.464844 -10.695312 L 26.128906 -3.898438 L 38.765625 -5.785156 L 27.316406 -14.863281 C 33.253906 -18.757812 36.285156 -25.355469 35.058594 -33.574219 C 33.574219 -43.511719 24.15625 -50.320312 13.421875 -48.71875 L -2.464844 -46.347656 L 4.355469 -0.648438 L 13.863281 -2.070312 L 12.683594 -9.980469 Z M 11.398438 -18.570312 L 8.324219 -39.179688 L 14.089844 -40.039062 C 20.59375 -41.007812 24.582031 -36.964844 25.414062 -31.382812 C 26.429688 -24.574219 22.871094 -20.28125 15.324219 -19.15625 Z M 11.398438 -18.570312 "/></g></g></g><g fill="#ffffff" fill-opacity="1"><g transform="translate(81.333491, 201.253568)"><g><path d="M 32.878906 -3.410156 L 31.984375 -12.046875 L 13.046875 -10.082031 L 11.847656 -21.617188 L 29.121094 -23.410156 L 28.230469 -31.984375 L 10.957031 -30.191406 L 10.070312 -38.765625 L 24.9375 -40.308594 L 24.039062 -48.945312 L -0.386719 -46.410156 L 4.378906 -0.453125 Z M 32.878906 -3.410156 "/></g></g></g><g fill="#ffffff" fill-opacity="1"><g transform="translate(117.600439, 197.510051)"><g><path d="M 32.992188 -2.050781 L 32.453125 -10.71875 L 13.449219 -9.535156 L 12.730469 -21.109375 L 30.0625 -22.1875 L 29.527344 -30.792969 L 12.195312 -29.714844 L 11.660156 -38.320312 L 26.578125 -39.246094 L 26.039062 -47.914062 L 1.527344 -46.386719 L 4.394531 -0.273438 Z M 32.992188 -2.050781 "/></g></g></g><g fill="#ffffff" fill-opacity="1"><g transform="translate(154.07289, 195.34374)"><g/></g></g><g fill="#ffffff" fill-opacity="1"><g transform="translate(181.184, 194.578724)"><g><path d="M 15.695312 -20.320312 C 20.152344 -19.785156 22.613281 -17.464844 22.578125 -13.746094 C 22.550781 -10.769531 20.046875 -8.25 16.882812 -8.277344 C 14.15625 -8.304688 11.992188 -9.003906 9.90625 -11.691406 L 1.914062 -5.9375 C 6.273438 -1.058594 11.527344 0.914062 16.796875 0.960938 C 24.921875 1.039062 32.484375 -5.34375 32.570312 -14.335938 C 32.652344 -23.265625 26.191406 -28.660156 18.320312 -29.226562 C 13.421875 -29.582031 11.890625 -31.519531 11.910156 -33.628906 C 11.933594 -36.171875 13.683594 -37.707031 16.226562 -37.683594 C 17.839844 -37.667969 19.875 -36.65625 21.105469 -35.339844 L 28.722656 -40.789062 C 25.226562 -45.039062 20.902344 -46.816406 16.3125 -46.859375 C 9.925781 -46.917969 2.679688 -41.464844 2.605469 -33.652344 C 2.539062 -26.398438 7.703125 -21.324219 15.695312 -20.320312 Z M 15.695312 -20.320312 "/></g></g></g><g fill="#ffffff" fill-opacity="1"><g transform="translate(216.550449, 194.850649)"><g><path d="M 13.996094 0.746094 L 14.367188 -6.253906 L 19.878906 -5.960938 C 31.460938 -5.34375 40.285156 -13.628906 40.914062 -25.460938 C 41.414062 -34.8125 33.914062 -44.464844 22.582031 -45.066406 L 6.851562 -45.902344 L 4.398438 0.234375 Z M 14.832031 -14.984375 L 15.988281 -36.722656 L 21.8125 -36.414062 C 28.066406 -36.078125 31.304688 -30.378906 31.015625 -24.992188 C 30.699219 -19.046875 26.785156 -14.347656 20.097656 -14.707031 Z M 14.832031 -14.984375 "/></g></g></g><g fill="#ffffff" fill-opacity="1"><g transform="translate(258.858586, 197.320877)"><g><path d="M 18.027344 -44.789062 L 8.453125 -45.636719 L 4.386719 0.386719 L 13.960938 1.234375 Z M 18.027344 -44.789062 "/></g></g></g><g fill="#ffffff" fill-opacity="1"><g transform="translate(278.236594, 198.843332)"><g><path d="M 19.695312 -5.621094 L 26.21875 3.25 L 38.898438 4.824219 L 30.300781 -6.992188 C 37.066406 -9.152344 41.753906 -14.695312 42.777344 -22.941406 C 44.015625 -32.914062 36.765625 -41.996094 25.996094 -43.332031 L 10.054688 -45.308594 L 4.371094 0.542969 L 13.910156 1.726562 L 14.894531 -6.214844 Z M 15.960938 -14.832031 L 18.527344 -35.511719 L 24.3125 -34.792969 C 30.835938 -33.984375 33.59375 -29.019531 32.898438 -23.417969 C 32.054688 -16.585938 27.472656 -13.402344 19.902344 -14.34375 Z M 15.960938 -14.832031 "/></g></g></g><g fill="#ffffff" fill-opacity="1"><g transform="translate(320.754586, 204.342212)"><g><path d="M 21.136719 -43.410156 L 11.644531 -44.925781 L 4.347656 0.695312 L 13.839844 2.214844 Z M 21.136719 -43.410156 "/></g></g></g><g fill="#ffffff" fill-opacity="1"><g transform="translate(340.017078, 207.302577)"><g><path d="M 21.800781 4.199219 L 28.898438 -32.640625 L 40.835938 -30.34375 L 42.476562 -38.867188 L 9.898438 -45.144531 L 8.253906 -36.621094 L 19.460938 -34.460938 L 12.363281 2.382812 Z M 21.800781 4.199219 "/></g></g></g><g fill="#ffffff" fill-opacity="1"><g transform="translate(116.216267, 231.177573)"><g><path d="M 12.296875 -15.59375 L 13.640625 -1.296875 L 10.15625 -0.953125 L 9.59375 -6.828125 L 4.1875 -6.328125 L 4.75 -0.453125 L 1.265625 -0.125 L -0.078125 -14.421875 L 3.40625 -14.75 L 3.921875 -9.15625 L 9.328125 -9.65625 L 8.8125 -15.25 Z M 12.296875 -15.59375 "/></g></g></g><g fill="#ffffff" fill-opacity="1"><g transform="translate(133.873207, 229.543429)"><g><path d="M 10 -3.234375 L 4.65625 -2.859375 L 3.96875 -0.28125 L 0.328125 -0.015625 L 4.515625 -14.703125 L 8.578125 -14.984375 L 14.734375 -1.015625 L 11.03125 -0.765625 Z M 8.9375 -5.859375 L 6.796875 -10.984375 L 5.390625 -5.609375 Z M 8.9375 -5.859375 "/></g></g></g><g fill="#ffffff" fill-opacity="1"><g transform="translate(151.730238, 228.378746)"><g><path d="M 4.046875 -14.578125 L 4.765625 -0.234375 L 1.265625 -0.0625 L 0.546875 -14.40625 Z M 4.046875 -14.578125 "/></g></g></g><g fill="#ffffff" fill-opacity="1"><g transform="translate(160.58362, 227.928083)"><g><path d="M 8.59375 -0.28125 L 5.4375 -5.609375 L 4.59375 -5.578125 L 4.765625 -0.15625 L 1.265625 -0.046875 L 0.796875 -14.40625 L 6.671875 -14.59375 C 7.796875 -14.625 8.765625 -14.453125 9.578125 -14.078125 C 10.398438 -13.710938 11.019531 -13.191406 11.4375 -12.515625 C 11.851562 -11.847656 12.078125 -11.09375 12.109375 -10.25 C 12.140625 -9.289062 11.894531 -8.425781 11.375 -7.65625 C 10.851562 -6.882812 10.070312 -6.328125 9.03125 -5.984375 L 12.53125 -0.40625 Z M 4.515625 -8.046875 L 6.6875 -8.109375 C 7.320312 -8.128906 7.796875 -8.300781 8.109375 -8.625 C 8.421875 -8.945312 8.566406 -9.394531 8.546875 -9.96875 C 8.523438 -10.519531 8.347656 -10.945312 8.015625 -11.25 C 7.679688 -11.550781 7.195312 -11.691406 6.5625 -11.671875 L 4.390625 -11.609375 Z M 4.515625 -8.046875 "/></g></g></g><g fill="#ffffff" fill-opacity="1"><g transform="translate(176.749458, 227.466538)"><g/></g></g><g fill="#ffffff" fill-opacity="1"><g transform="translate(183.927088, 227.343279)"><g><path d="M 6.46875 0.140625 C 5.414062 0.140625 4.472656 -0.0234375 3.640625 -0.359375 C 2.804688 -0.703125 2.140625 -1.207031 1.640625 -1.875 C 1.148438 -2.550781 0.890625 -3.359375 0.859375 -4.296875 L 4.578125 -4.296875 C 4.628906 -3.765625 4.8125 -3.359375 5.125 -3.078125 C 5.445312 -2.796875 5.859375 -2.65625 6.359375 -2.65625 C 6.878906 -2.65625 7.285156 -2.773438 7.578125 -3.015625 C 7.878906 -3.253906 8.03125 -3.585938 8.03125 -4.015625 C 8.03125 -4.367188 7.910156 -4.660156 7.671875 -4.890625 C 7.441406 -5.117188 7.148438 -5.304688 6.796875 -5.453125 C 6.453125 -5.609375 5.957031 -5.78125 5.3125 -5.96875 C 4.382812 -6.257812 3.628906 -6.546875 3.046875 -6.828125 C 2.460938 -7.117188 1.957031 -7.539062 1.53125 -8.09375 C 1.113281 -8.65625 0.90625 -9.382812 0.90625 -10.28125 C 0.90625 -11.625 1.382812 -12.671875 2.34375 -13.421875 C 3.3125 -14.179688 4.578125 -14.5625 6.140625 -14.5625 C 7.722656 -14.5625 8.992188 -14.179688 9.953125 -13.421875 C 10.921875 -12.671875 11.441406 -11.617188 11.515625 -10.265625 L 7.734375 -10.265625 C 7.703125 -10.734375 7.53125 -11.097656 7.21875 -11.359375 C 6.90625 -11.628906 6.503906 -11.765625 6.015625 -11.765625 C 5.585938 -11.765625 5.242188 -11.648438 4.984375 -11.421875 C 4.734375 -11.191406 4.609375 -10.867188 4.609375 -10.453125 C 4.609375 -9.984375 4.820312 -9.617188 5.25 -9.359375 C 5.6875 -9.109375 6.367188 -8.832031 7.296875 -8.53125 C 8.222656 -8.21875 8.976562 -7.914062 9.5625 -7.625 C 10.144531 -7.34375 10.644531 -6.925781 11.0625 -6.375 C 11.488281 -5.832031 11.703125 -5.132812 11.703125 -4.28125 C 11.703125 -3.457031 11.492188 -2.710938 11.078125 -2.046875 C 10.660156 -1.378906 10.054688 -0.847656 9.265625 -0.453125 C 8.472656 -0.0546875 7.539062 0.140625 6.46875 0.140625 Z M 6.46875 0.140625 "/></g></g></g><g fill="#ffffff" fill-opacity="1"><g transform="translate(199.298159, 227.365598)"><g><path d="M 10.265625 -2.28125 L 4.90625 -2.421875 L 3.984375 0.09375 L 0.328125 0.015625 L 5.859375 -14.234375 L 9.921875 -14.125 L 14.765625 0.359375 L 11.0625 0.265625 Z M 9.4375 -5.015625 L 7.78125 -10.328125 L 5.890625 -5.09375 Z M 9.4375 -5.015625 "/></g></g></g><g fill="#ffffff" fill-opacity="1"><g transform="translate(217.169798, 227.850604)"><g><path d="M 4.890625 -2.484375 L 9.453125 -2.28125 L 9.328125 0.421875 L 1.265625 0.0625 L 1.921875 -14.28125 L 5.421875 -14.125 Z M 4.890625 -2.484375 "/></g></g></g><g fill="#ffffff" fill-opacity="1"><g transform="translate(229.714551, 228.416719)"><g><path d="M 8.03125 0.6875 C 6.675781 0.59375 5.460938 0.195312 4.390625 -0.5 C 3.316406 -1.207031 2.484375 -2.140625 1.890625 -3.296875 C 1.304688 -4.460938 1.0625 -5.75 1.15625 -7.15625 C 1.25 -8.5625 1.664062 -9.800781 2.40625 -10.875 C 3.144531 -11.945312 4.09375 -12.753906 5.25 -13.296875 C 6.414062 -13.847656 7.675781 -14.078125 9.03125 -13.984375 C 10.375 -13.890625 11.582031 -13.492188 12.65625 -12.796875 C 13.738281 -12.097656 14.566406 -11.164062 15.140625 -10 C 15.710938 -8.84375 15.953125 -7.5625 15.859375 -6.15625 C 15.765625 -4.75 15.351562 -3.507812 14.625 -2.4375 C 13.894531 -1.363281 12.945312 -0.550781 11.78125 0 C 10.625 0.550781 9.375 0.78125 8.03125 0.6875 Z M 8.25 -2.5 C 9.394531 -2.425781 10.332031 -2.742188 11.0625 -3.453125 C 11.800781 -4.171875 12.210938 -5.15625 12.296875 -6.40625 C 12.390625 -7.675781 12.117188 -8.707031 11.484375 -9.5 C 10.847656 -10.300781 9.957031 -10.738281 8.8125 -10.8125 C 7.644531 -10.894531 6.691406 -10.585938 5.953125 -9.890625 C 5.222656 -9.191406 4.8125 -8.203125 4.71875 -6.921875 C 4.632812 -5.648438 4.910156 -4.613281 5.546875 -3.8125 C 6.179688 -3.019531 7.082031 -2.582031 8.25 -2.5 Z M 8.25 -2.5 "/></g></g></g><g fill="#ffffff" fill-opacity="1"><g transform="translate(248.519183, 229.732523)"><g><path d="M 14.046875 1.328125 L 10.5625 1 L 5.578125 -8.359375 L 4.75 0.453125 L 1.265625 0.125 L 2.609375 -14.171875 L 6.09375 -13.84375 L 11.078125 -4.4375 L 11.90625 -13.296875 L 15.390625 -12.96875 Z M 14.046875 1.328125 "/></g></g></g><g fill="#ffffff" fill-opacity="1"><g transform="translate(145.189039, 72.830927)"><g><path d="M 18.5 0 L 18.5 -26.765625 L 41.417969 -26.765625 L 41.417969 -38.144531 L 18.5 -38.144531 L 18.5 -49.523438 L 38.226562 -49.523438 L 38.226562 -60.980469 L 5.8125 -60.980469 L 5.8125 0 Z M 18.5 0 "/></g></g></g><g fill="#ffffff" fill-opacity="1"><g transform="translate(189.05725, 72.830927)"><g><path d="M 20.464844 -27.011719 C 26.355469 -26.355469 29.632812 -23.328125 29.632812 -18.417969 C 29.632812 -14.488281 26.355469 -11.132812 22.183594 -11.132812 C 18.582031 -11.132812 15.714844 -12.03125 12.933594 -15.550781 L 2.457031 -7.859375 C 8.265625 -1.472656 15.226562 1.0625 22.183594 1.0625 C 32.90625 1.0625 42.808594 -7.449219 42.808594 -19.316406 C 42.808594 -31.105469 34.214844 -38.144531 23.820312 -38.800781 C 17.351562 -39.207031 15.308594 -41.746094 15.308594 -44.527344 C 15.308594 -47.886719 17.597656 -49.929688 20.953125 -49.929688 C 23.082031 -49.929688 25.785156 -48.621094 27.421875 -46.902344 L 37.40625 -54.1875 C 32.742188 -59.753906 27.011719 -62.046875 20.953125 -62.046875 C 12.523438 -62.046875 3.027344 -54.761719 3.027344 -44.445312 C 3.027344 -34.871094 9.90625 -28.238281 20.464844 -27.011719 Z M 20.464844 -27.011719 "/></g></g></g></svg>